<svg xmlns="http://www.w3.org/2000/svg" width="210.87" height="124.883" viewBox="0 0 210.87 124.883">
  <g id="icon-tab-full" transform="translate(0.5 0.5)">
    <path id="Path_8556" data-name="Path 8556" d="M208.87,42.654V63.459H156.9V32.279h41.6A10.375,10.375,0,0,1,208.87,42.654Z" fill="#ff6700" stroke="#141212" stroke-linecap="round" stroke-miterlimit="10" stroke-width="3"/>
    <rect id="Rectangle_1236" data-name="Rectangle 1236" width="62.36" height="20.74" transform="translate(21.788 21.883)" fill="#ff6700" stroke="#141212" stroke-linecap="round" stroke-miterlimit="10" stroke-width="3"/>
    <path id="Path_8557" data-name="Path 8557" d="M87.968,105.433l-22.58-.97-17.01,20.18a3.288,3.288,0,0,1-5.8-2.25l2.23-55.77a3.287,3.287,0,0,1,5.36-2.42l40.86,33.17A4.541,4.541,0,0,1,87.968,105.433Z" transform="translate(-3 -3)" fill="#ff6700" stroke="#141212" stroke-linecap="round" stroke-miterlimit="10" stroke-width="3"/>
    <path id="Path_8558" data-name="Path 8558" d="M28.68,84.24H11.375A10.375,10.375,0,0,1,1,73.865V13.99A12.99,12.99,0,0,1,13.99,1H91.95a12.98,12.98,0,0,1,12.98,12.99V63.4H208.87V73.865A10.375,10.375,0,0,1,198.495,84.24H94.54" fill="none" stroke="#141212" stroke-linecap="round" stroke-linejoin="round" stroke-width="3"/>
    <path id="Path_8555" data-name="Path 8555" d="M156.9,32.28V63.46l-51.97-.06V32.28Z" fill="#ff6700" stroke="#141212" stroke-linecap="round" stroke-miterlimit="10" stroke-width="3"/>
  </g>
</svg>
