<svg id="uifx-log" xmlns="http://www.w3.org/2000/svg" width="159.471" height="89.111" viewBox="0 0 159.471 89.111">
  <path id="Path_1" data-name="Path 1" d="M53.818,18.859A8.865,8.865,0,0,1,44.665,9.7,8.865,8.865,0,0,1,53.818.551,8.663,8.663,0,0,1,60.27,3.2,8.947,8.947,0,0,1,62.862,9.7a8.944,8.944,0,0,1-2.592,6.507,8.667,8.667,0,0,1-6.452,2.647" fill="#1a1818"/>
  <path id="Path_2" data-name="Path 2" d="M156,83.487a19.931,19.931,0,0,1-3.254-4.192q-4.524-7.387-8.381-13.73t-7.721-12.958l8.934-12.353a28.185,28.185,0,0,1,6.451-6.947,13.053,13.053,0,0,1,5.9-2.206V30H141.936v1.1q3.309.222,3.694,3.088t-2.371,6.727l-7.388,10.368q-1.547-2.537-3.088-5.184t-3.2-5.515a10.7,10.7,0,0,1-1.82-6.4q.274-2.866,3.806-3.088V30H93.852V21.617q0-9.372,1.984-14.779,1.764-5.4,5.294-5.4,3.418,0,5.625,4.853a21.628,21.628,0,0,1,1.6,5.625,57.5,57.5,0,0,1,.606,7.168l13.235-7.5a14.584,14.584,0,0,0-4.467-6.01,23.716,23.716,0,0,0-7.5-4.08A28.276,28.276,0,0,0,101.02,0,21.727,21.727,0,0,0,88.779,3.419a22.239,22.239,0,0,0-8,9.54,34.482,34.482,0,0,0-2.813,14.5V30H69.7l-1.1,1.986H77.97V76.1a8.542,8.542,0,0,1-2.481,6.4,8.777,8.777,0,0,1-6.275,2.419,8.108,8.108,0,0,1-4.807-2.364A8.833,8.833,0,0,1,61.98,76.1l.11-50.29h-1.1a8.3,8.3,0,0,1-3.97,2.978A23.724,23.724,0,0,1,48.415,30H37.277v1.1q4.851,0,6.838,2.427a9.784,9.784,0,0,1,1.984,6.4V72.347a26.322,26.322,0,0,1-6.4,7.886,11.4,11.4,0,0,1-7.058,2.923,6.645,6.645,0,0,1-5.735-3.309,15.664,15.664,0,0,1-2.2-8.823V25.807H23.6a8.3,8.3,0,0,1-3.859,2.978A23.728,23.728,0,0,1,11.139,30H0v1.1q5.625,0,7.279,2.316a11.056,11.056,0,0,1,1.654,6.507v30q0,7.941,4.467,12.793t11.855,4.853a23.531,23.531,0,0,0,12.353-3.53,22.61,22.61,0,0,0,8.712-9.153l.11,14.227h.552a6.334,6.334,0,0,1,4.19-2.536q1.432-.223,3.64-.387t5.073-.165h59v-1.1q-3.861-.219-4.8-2.7t1.6-6.011l9.7-13.674q1.875,3.087,3.75,6.23t3.75,6.563q2.424,4.08,1.875,6.726T130.8,84.92v1.1h28.674v-1.1A6.052,6.052,0,0,1,156,83.487m-41.854-7.721a30.449,30.449,0,0,1-6.286,6.948,15.257,15.257,0,0,1-4.633,2.124,11.573,11.573,0,0,1-6.341-2.344,7.788,7.788,0,0,1-3.032-6.4V31.984h11.693a6.179,6.179,0,0,1,1.1.826,29.729,29.729,0,0,1,3.86,5.129q1.874,3.2,3.695,6.176t3.584,5.844q1.763,2.759,3.419,5.625t3.419,5.735Z" fill="#1a1818"/>
</svg>
