<svg id="tabs-small-icon" xmlns="http://www.w3.org/2000/svg" width="106.659" height="87.895" viewBox="0 0 106.659 87.895">
  <path id="Path_8547" data-name="Path 8547" d="M106.17,7.368V85.33H103.6V7.368a4.8,4.8,0,0,0-4.787-4.8h-73a4.8,4.8,0,0,0-4.787,4.8V85.33H18.46V7.368A7.369,7.369,0,0,1,25.813,0h73a7.365,7.365,0,0,1,7.353,7.368" transform="translate(-8.988)" fill="#1a1818"/>
  <path id="Path_8548" data-name="Path 8548" d="M105.816,75.592H39.254V62.361h66.562Zm-64-2.566H103.25v-8.1H41.819Z" transform="translate(-19.113 -30.363)" fill="#1a1818"/>
  <path id="Path_8549" data-name="Path 8549" d="M105.816,113.73H39.254v-8.572h66.562Zm-64-2.566H103.25v-3.441H41.819Z" transform="translate(-19.113 -51.201)" fill="#1a1818"/>
  <path id="Path_8550" data-name="Path 8550" d="M95.149,142.064h-55.9v-8.78h55.9ZM41.819,139.5H92.583V135.85H41.819Z" transform="translate(-19.112 -64.895)" fill="#1a1818"/>
  <path id="Path_8551" data-name="Path 8551" d="M106.044,28.548v2.566h-47.3V22.036A3.407,3.407,0,0,0,55.3,18.676H36.364a3.406,3.406,0,0,0-3.438,3.361v9.077H23.465V28.548h6.9V22.036a5.972,5.972,0,0,1,6-5.926H55.3a5.973,5.973,0,0,1,6.008,5.926v6.511Z" transform="translate(-11.425 -7.844)" fill="#1a1818"/>
  <rect id="Rectangle_1227" data-name="Rectangle 1227" width="15.937" height="4.526" transform="translate(26.443 15.018)" fill="#1a1818"/>
  <path id="Path_8552" data-name="Path 8552" d="M134.04,28.23v6.219h-2.565V30.8H115.63v3.653h-2.566V30.8H97.225V28.23Z" transform="translate(-47.338 -13.745)" fill="#1a1818"/>
  <rect id="Rectangle_1228" data-name="Rectangle 1228" width="106.659" height="2.566" transform="translate(0 85.329)" fill="#1a1818"/>
</svg>
