<svg xmlns="http://www.w3.org/2000/svg" width="106.826" height="88.326" viewBox="0 0 106.826 88.326">
  <g id="icon-tabs-stroke" transform="translate(0 0.216)">
    <path id="Path_8553" data-name="Path 8553" d="M20.963,87.96V8.592A6.087,6.087,0,0,1,27.043,2.5h73.117a6.087,6.087,0,0,1,6.08,6.093V87.96" transform="translate(-10.19 -1.215)" fill="none" stroke="#1a1818" stroke-miterlimit="10" stroke-width="2"/>
    <rect id="Rectangle_1229" data-name="Rectangle 1229" width="64.095" height="10.682" transform="translate(21.455 33.333)" fill="none" stroke="#1a1818" stroke-miterlimit="10" stroke-width="2"/>
    <rect id="Rectangle_1230" data-name="Rectangle 1230" width="64.095" height="6.016" transform="translate(21.455 55.326)" fill="none" stroke="#1a1818" stroke-miterlimit="10" stroke-width="2"/>
    <rect id="Rectangle_1231" data-name="Rectangle 1231" width="53.413" height="6.225" transform="translate(21.455 69.78)" fill="none" stroke="#1a1818" stroke-miterlimit="10" stroke-width="2"/>
    <path id="Path_8554" data-name="Path 8554" d="M20.963,31.068h9.475V23.262a4.691,4.691,0,0,1,4.729-4.651H54.136a4.691,4.691,0,0,1,4.729,4.651v7.806h47.378" transform="translate(-10.19 -9.047)" fill="none" stroke="#1a1818" stroke-miterlimit="10" stroke-width="2"/>
    <rect id="Rectangle_1232" data-name="Rectangle 1232" width="18.438" height="6.228" transform="translate(48.675 15.793)" fill="none" stroke="#1a1818" stroke-miterlimit="10" stroke-width="2"/>
    <rect id="Rectangle_1233" data-name="Rectangle 1233" width="18.438" height="6.228" transform="translate(67.113 15.793)" fill="none" stroke="#1a1818" stroke-miterlimit="10" stroke-width="2"/>
    <rect id="Rectangle_1234" data-name="Rectangle 1234" width="13.39" height="1.965" transform="translate(27.767 16.326)" fill="#fff" stroke="#707070" stroke-width="2"/>
    <rect id="Rectangle_1235" data-name="Rectangle 1235" width="13.39" height="1.965" transform="translate(27.767 16.326)" fill="none" stroke="#1a1818" stroke-miterlimit="10" stroke-width="2"/>
    <line id="Line_1" data-name="Line 1" x2="106.826" transform="translate(0 86.61)" fill="#1a1818" stroke="#707070" stroke-width="2"/>
    <line id="Line_2" data-name="Line 2" x2="106.826" transform="translate(0 86.61)" fill="none" stroke="#1a1818" stroke-miterlimit="10" stroke-width="2"/>
  </g>
</svg>
